<svg version="1.1" id="Layer_1" xmlns="http://www.w3.org/2000/svg" xmlns:xlink="http://www.w3.org/1999/xlink" x="0px" y="0px"
	 width="100%" viewBox="0 0 448 368" enable-background="new 0 0 448 368" xml:space="preserve">
<path fill="#1B4D2E" opacity="1.000000" stroke="none" 
	d="
M195.976700,155.970398 
	C205.135757,161.390030 215.212982,163.858521 226.651154,165.576614 
	C223.565872,157.047165 219.804169,149.936768 212.722122,145.031616 
	C201.617630,137.340424 188.923401,133.236343 176.203140,129.307526 
	C164.131454,125.579018 151.919556,122.295235 140.452545,116.841133 
	C136.213776,114.825043 132.142929,112.560555 129.125046,108.862000 
	C127.703522,107.119865 125.757263,107.033134 123.746552,106.538605 
	C124.249382,108.211784 126.642372,107.710800 126.755066,109.533722 
	C113.600876,113.160309 99.738213,101.171471 101.793991,88.017883 
	C102.222275,85.277550 103.539856,83.830246 106.351326,83.767960 
	C120.260338,83.459801 129.963837,88.866394 131.280304,103.545586 
	C131.595306,107.057983 132.875839,109.197144 136.769318,109.793396 
	C136.939484,103.670952 138.850555,98.545090 145.596420,96.961418 
	C150.974838,95.698776 153.128922,98.089211 151.760300,103.496857 
	C150.524323,108.380386 146.658905,110.168549 141.354279,112.001724 
	C150.667587,115.680054 159.099060,118.897163 167.846359,121.162117 
	C171.051315,121.991974 170.638443,119.120758 170.667267,117.240601 
	C170.895523,102.346855 167.308044,88.295380 161.232071,74.791298 
	C160.374557,72.885445 158.902588,71.127556 159.290512,68.739548 
	C161.493698,68.261093 162.040497,70.255836 163.627548,71.732803 
	C164.423340,72.939728 164.837219,73.602066 165.251099,74.264397 
	C172.061493,86.457375 176.563736,99.375008 178.062088,113.342911 
	C178.409561,116.582108 176.732559,120.831657 179.389008,122.841621 
	C181.772705,124.645218 185.698196,124.424484 188.949799,125.064980 
	C196.785187,126.608398 204.275848,129.322830 212.430771,131.740906 
	C209.647552,123.140068 211.339417,113.525841 203.929733,106.234207 
	C191.547119,94.048874 184.295609,79.503334 185.634003,61.537132 
	C185.956024,57.214413 186.403748,55.361626 189.123108,52.075756 
	C191.159653,56.868935 190.262054,61.793018 191.254883,66.382202 
	C193.832336,78.296234 197.609726,89.452415 206.820999,98.123482 
	C209.922119,101.042755 212.175018,101.309357 215.692841,98.507988 
	C222.611511,92.998398 228.650177,86.683777 234.211899,79.656464 
	C236.009857,81.833183 234.488052,83.258682 233.913513,84.583672 
	C230.505920,92.441986 226.423874,99.878632 219.256149,105.038147 
	C217.095566,106.593391 217.139496,108.699051 217.471344,110.860039 
	C218.704117,118.887695 220.240356,126.875397 221.227661,134.931412 
	C221.751999,139.209854 224.856613,140.942688 227.862595,142.302490 
	C230.643860,143.560608 232.192657,140.407410 233.740585,138.647263 
	C239.185699,132.455673 241.363083,125.471321 238.105026,117.431557 
	C237.104797,114.963348 236.145737,113.163086 232.612701,114.155220 
	C228.355759,115.350632 225.725708,112.844559 224.502197,108.758904 
	C223.940506,106.883232 223.551727,105.127144 225.785370,104.077637 
	C228.354767,102.870377 234.687225,104.864143 235.793259,107.875984 
	C237.610962,112.825752 241.923920,115.052696 245.687943,118.758057 
	C249.087234,115.042053 252.281631,111.550034 255.643341,107.875114 
	C248.948685,107.634399 245.452408,103.640205 242.844467,98.787498 
	C240.366653,94.176971 241.815582,89.711021 244.404251,85.578072 
	C245.534286,83.773926 247.253662,84.308090 248.891266,84.852234 
	C256.640442,87.427155 259.842682,92.130692 259.324585,100.274078 
	C259.232513,101.721489 258.996094,103.159721 258.821228,104.645592 
	C260.842468,104.822853 262.048737,102.587906 264.366058,103.334671 
	C264.183594,105.449715 262.619690,106.770874 261.356476,108.125435 
	C255.584106,114.315369 251.449203,121.439552 248.533234,129.365921 
	C246.083511,136.024902 242.498474,141.996567 236.713379,146.360794 
	C234.853745,147.763702 233.960770,149.155670 235.652679,151.300064 
	C244.725693,162.799606 248.256271,176.430344 250.465134,190.594147 
	C252.822952,190.643524 253.719955,188.796265 254.900894,187.588577 
	C265.045532,177.214157 275.723999,167.448639 286.905060,158.185791 
	C302.344940,145.394730 304.542023,128.931686 299.144379,110.665649 
	C294.692017,95.598618 286.552063,82.450150 277.684753,69.683662 
	C276.763428,68.357208 275.301056,67.311203 275.188904,65.490341 
	C276.435486,64.145157 277.326233,65.340645 278.186310,65.914665 
	C283.636017,69.551788 288.301056,74.082146 292.456757,79.096474 
	C295.240448,82.455315 297.258270,81.990692 299.210297,78.439026 
	C300.623016,75.868614 302.109650,73.338844 304.140289,70.954170 
	C305.178467,75.071587 303.995026,78.955688 302.301697,82.430840 
	C300.147797,86.851105 300.224762,90.355934 302.785126,94.822411 
	C307.627563,103.269981 309.197845,112.913170 310.575714,123.542854 
	C315.596100,117.937218 319.622253,112.500687 325.490387,108.094719 
	C322.805481,106.100929 320.350616,104.502457 318.154785,102.604279 
	C312.113220,97.381699 310.808777,90.734016 314.183441,84.231476 
	C315.755890,81.201607 317.523407,80.256104 320.974365,81.698250 
	C329.199554,85.135529 334.675751,92.437210 331.210815,102.016884 
	C330.995026,102.613518 330.994690,103.288071 330.915894,103.788223 
	C331.973724,105.275421 333.664124,104.050293 335.299438,105.623383 
	C324.059113,120.163612 313.303680,135.217972 308.116760,153.744736 
	C325.101929,155.481018 338.225708,148.442169 349.804230,137.463181 
	C347.054596,135.237167 344.319672,132.139236 344.594147,127.410744 
	C344.783875,124.142113 346.021393,120.993874 349.065125,120.287064 
	C352.409851,119.510338 354.241699,122.691437 355.583099,125.374741 
	C356.827728,127.864433 356.872192,130.673874 355.540588,133.094208 
	C354.374603,135.213470 355.207611,136.286774 357.255035,137.355087 
	C352.355255,141.327408 347.195618,144.473923 343.308807,150.240921 
	C356.055450,152.387726 369.114685,152.319016 379.007721,161.670349 
	C370.895630,160.137115 362.900940,158.143356 354.707092,157.514984 
	C346.553986,156.889725 338.466705,157.509521 330.313843,159.936325 
	C330.641602,162.207535 332.425049,162.948593 333.809418,163.953888 
	C345.232880,172.248978 355.480164,181.600403 362.334106,194.243713 
	C365.335419,199.780197 365.568237,194.094009 366.934052,192.902740 
	C371.888184,188.581665 382.020203,188.715225 386.988464,193.127930 
	C392.294067,197.840271 391.866516,201.023315 385.589386,204.210495 
	C377.837402,208.146500 371.457581,205.593079 365.523193,199.771576 
	C364.330048,203.057343 367.016663,206.002991 365.752228,208.989471 
	C363.048584,208.995987 363.064911,206.687302 362.259277,205.242645 
	C355.196625,192.578033 346.705353,181.222610 334.206726,173.297485 
	C323.952057,166.795181 312.801697,164.422394 300.828247,165.431641 
	C295.592438,165.872955 291.385834,168.433914 287.778778,172.096451 
	C274.099335,185.986313 263.180206,201.833038 254.374969,219.185303 
	C247.050842,233.618805 248.590851,248.572174 251.912476,263.550629 
	C253.060013,268.725311 255.097382,273.696350 256.487122,278.825714 
	C257.544922,282.729950 259.828918,283.809387 263.783905,283.791992 
	C297.943848,283.641663 332.104736,283.699493 366.265320,283.699677 
	C387.428223,283.699799 408.591156,283.703949 429.754059,283.720032 
	C431.250458,283.721191 432.759705,283.735168 434.239685,283.924957 
	C435.898743,284.137665 436.280212,285.383820 436.228577,286.860718 
	C436.180298,288.240784 435.475861,289.070740 434.126709,289.188141 
	C432.636139,289.317841 431.132599,289.338074 429.634705,289.338165 
	C309.989410,289.345184 190.344116,289.357086 70.698906,289.264221 
	C68.300156,289.262360 64.028427,291.027283 63.968243,286.664337 
	C63.900494,281.752808 68.465736,283.810059 70.942413,283.803040 
	C117.933685,283.669922 164.925659,283.643738 211.916733,283.809204 
	C216.519470,283.825378 218.780899,282.608490 219.965698,277.965515 
	C223.341461,264.736542 226.306274,251.469742 226.640320,237.762436 
	C226.853149,229.029526 224.502304,221.035675 219.445969,213.818771 
	C201.404846,188.068619 177.195602,172.479996 145.791138,168.123779 
	C137.658875,166.995712 129.528427,168.089401 121.371346,166.602066 
	C128.485657,162.544739 136.540298,162.561157 144.884323,161.501877 
	C140.739532,156.108749 136.209473,151.135239 136.707184,144.117661 
	C137.899689,143.569611 138.489944,143.990784 138.790802,144.567093 
	C144.153717,154.840179 152.966385,160.996597 163.741028,163.958710 
	C189.801605,171.123169 210.787033,186.186813 229.567871,204.918350 
	C230.392715,205.741028 231.253082,206.530823 232.135895,207.290634 
	C232.355286,207.479477 232.726959,207.491364 233.601105,207.761490 
	C234.205643,196.935837 232.764359,186.547379 229.851471,176.343124 
	C229.029861,173.464890 226.022537,173.331055 223.698502,172.706528 
	C213.098236,169.858002 203.605850,164.730881 194.556107,158.708328 
	C193.048248,157.704865 190.828598,157.027512 190.848862,154.443314 
	C192.792603,153.644104 193.950073,155.257767 195.711411,155.877594 
	C196.004166,155.999817 195.976700,155.970398 195.976700,155.970398 
z"/>
<path fill="#3A7D52" opacity="1.000000" stroke="none" 
	d="
M395.270020,131.986588 
	C396.437866,133.544434 396.240906,134.782501 395.387329,135.975159 
	C386.508728,148.381149 370.993134,151.769882 358.767029,138.698868 
	C360.019196,135.883667 363.230072,135.607742 365.424774,133.780121 
	C363.659576,133.273773 362.251251,135.265045 360.606445,134.166412 
	C364.604797,122.340088 383.827942,120.953506 395.270020,131.986588 
z"/>
<path fill="#3A7D52" opacity="1.000000" stroke="none" 
	d="
M358.513855,241.304062 
	C352.779297,231.752014 353.595306,224.101318 360.638092,215.960709 
	C363.376251,212.795700 365.162170,213.320206 366.899963,216.715729 
	C368.632477,220.101074 370.130371,223.560516 370.759094,227.353729 
	C371.250580,222.578522 368.227234,218.564499 367.367340,213.652939 
	C379.403595,222.027023 383.205780,237.488251 369.988800,247.646225 
	C368.060638,249.128113 366.425598,249.239807 364.716980,247.578491 
	C362.695770,245.613190 360.727081,243.593857 358.513855,241.304062 
z"/>
<path fill="#1B4D2E" opacity="1.000000" stroke="none" 
	d="
M126.468346,301.394958 
	C126.336815,309.419861 126.290154,317.083282 126.209984,324.746307 
	C126.175232,328.069031 126.182343,331.360657 129.667114,334.321381 
	C124.963951,335.808716 121.146759,335.778656 117.729156,334.733307 
	C120.830490,321.872864 120.425133,309.552917 118.044273,296.649567 
	C120.271301,295.178772 133.040695,294.919464 135.626694,296.869659 
	C139.088120,299.480011 139.802750,307.125916 136.301376,311.527466 
	C133.781525,314.695099 134.016632,317.208954 135.642181,320.498138 
	C137.831848,324.928864 139.368835,329.674622 142.102341,333.848969 
	C136.893784,336.625061 134.649445,335.944946 132.697983,331.173157 
	C130.997330,327.014679 129.356400,322.831604 127.630219,318.683868 
	C126.638885,316.301849 126.549744,314.720734 129.198349,312.882690 
	C132.687103,310.461639 133.278015,306.464783 131.403519,302.597198 
	C130.517426,300.768921 129.142502,298.452637 126.468346,301.394958 
z"/>
<path fill="#3A7D52" opacity="1.000000" stroke="none" 
	d="
M270.172546,37.739185 
	C277.650848,44.905014 278.733398,53.905205 273.432739,62.820660 
	C270.885742,63.325222 269.726624,61.000008 267.584076,59.889118 
	C267.592712,61.183952 269.170563,62.039093 268.385742,63.254982 
	C255.495804,61.518284 248.261215,45.664288 255.469315,35.111107 
	C257.075012,32.760262 258.968323,32.139133 261.423431,33.282635 
	C264.279053,34.612694 267.059937,36.103222 270.172546,37.739185 
z"/>
<path fill="#1B4D2E" opacity="1.000000" stroke="none" 
	d="
M399.697510,295.663483 
	C407.371765,296.521790 410.630981,304.220673 405.901550,310.976898 
	C403.218750,314.809387 403.520020,317.738281 405.315948,321.394745 
	C407.347534,325.531067 409.134552,329.787476 411.025665,333.986633 
	C406.106049,336.512421 404.129211,335.982574 402.193512,331.320404 
	C399.975739,325.978912 397.326660,320.788849 395.838806,314.861511 
	C400.287231,312.695862 402.357910,309.191620 401.517700,304.363678 
	C401.062439,301.747742 399.743500,299.720032 395.614349,299.752289 
	C395.879852,311.276978 393.520050,322.778229 397.351990,334.668335 
	C394.342255,336.109650 390.704895,335.377411 387.164062,334.943329 
	C390.017548,322.046143 389.630493,309.462799 387.417480,296.228943 
	C390.783813,294.875793 395.086121,296.024658 399.697510,295.663483 
z"/>
<path fill="#1B4D2E" opacity="1.000000" stroke="none" 
	d="
M266.799622,325.125793 
	C263.865753,319.688782 261.105621,314.576477 258.345459,309.464203 
	C258.341705,317.725494 254.937210,326.150330 260.028717,334.309082 
	C257.066162,335.945923 254.229233,335.695709 251.897797,334.784973 
	C255.031067,321.818268 254.924210,309.407074 252.163284,296.575684 
	C256.496704,294.358521 258.974121,295.086975 261.587219,300.009644 
	C265.232147,306.876160 268.878143,313.742126 272.822235,321.170624 
	C274.645599,311.867432 273.880157,303.196991 270.769012,296.445648 
	C273.644257,295.232574 276.437531,295.464386 279.319702,296.310852 
	C274.803711,309.242157 278.100067,322.582886 276.444122,336.192169 
	C270.098785,334.936707 269.825104,329.011963 266.799622,325.125793 
z"/>
<path fill="#1B4D2E" opacity="1.000000" stroke="none" 
	d="
M284.657166,311.084290 
	C284.536224,305.878143 285.518768,300.951447 280.420166,296.332886 
	C288.845154,295.550385 295.646667,294.804535 302.408966,296.630066 
	C305.577454,297.485413 307.188568,300.213989 308.165955,303.096588 
	C310.946503,311.297394 310.680939,319.453064 306.856628,327.271790 
	C304.143341,332.819031 299.746307,335.847931 293.251892,335.390564 
	C289.980255,335.160156 286.678986,335.350372 282.676910,335.350372 
	C285.713440,327.072296 284.332581,319.275269 284.657166,311.084290 
M302.336304,306.414825 
	C301.566254,304.371582 300.705994,302.379364 298.782043,301.121674 
	C296.932770,299.912781 294.922272,298.812317 292.708313,299.684601 
	C290.272430,300.644287 291.007538,303.042938 290.943115,304.935394 
	C290.705261,311.919495 290.510345,318.906403 290.433350,325.893738 
	C290.412476,327.783813 289.682434,330.260895 292.019409,331.237885 
	C294.565857,332.302429 296.978851,331.089355 298.922150,329.440613 
	C301.164948,327.537781 302.042328,324.804382 302.645111,321.992249 
	C303.705750,317.044006 303.752502,312.109680 302.336304,306.414825 
z"/>
<path fill="#1B4D2E" opacity="1.000000" stroke="none" 
	d="
M200.247208,295.727325 
	C204.599319,294.933044 206.680359,296.795044 208.352234,300.262146 
	C211.630875,307.061340 215.352188,313.647064 219.421722,320.144165 
	C218.926117,312.348938 222.261856,304.317200 217.038727,296.870575 
	C219.995758,294.791473 222.891190,295.840729 226.547958,296.171906 
	C220.993073,304.121490 224.011108,312.387543 223.417068,320.268402 
	C223.033417,325.358185 223.344955,330.500336 223.344955,335.473663 
	C219.653458,336.549561 218.508102,334.341797 217.384598,332.329712 
	C213.194061,324.824982 209.074692,317.280457 204.482910,309.847198 
	C204.865112,318.042084 202.077316,326.412262 206.643997,334.529022 
	C203.767532,335.768738 201.015381,335.640045 198.191879,334.637482 
	C202.982224,323.807007 199.784943,312.656616 200.532089,301.785858 
	C200.619644,300.512085 199.548813,299.776520 198.788269,298.892792 
	C197.486649,297.380402 197.632065,296.195892 200.247208,295.727325 
z"/>
<path fill="#1B4D2E" opacity="1.000000" stroke="none" 
	d="
M193.664398,302.695312 
	C196.559952,309.785065 196.466431,316.708740 194.799469,323.604248 
	C192.867844,331.594482 187.650665,336.335785 181.365326,336.277100 
	C174.710144,336.214966 170.035126,331.992279 168.261826,323.505402 
	C166.964142,317.294769 167.027908,310.930969 169.065628,304.787842 
	C170.970337,299.045593 174.862900,295.361420 181.020691,295.006775 
	C186.614746,294.684601 191.076248,296.929626 193.664398,302.695312 
M183.028900,331.640076 
	C185.715393,330.889343 187.204773,328.856445 187.897141,326.411530 
	C190.018539,318.920380 190.088684,311.384674 187.473999,303.984406 
	C186.555298,301.384216 184.905640,299.404175 181.705627,299.311340 
	C178.209412,299.209930 176.442978,301.378204 175.615402,304.180542 
	C173.307144,311.996735 173.288681,319.861176 176.214294,327.562805 
	C177.233810,330.246674 179.176590,331.940582 183.028900,331.640076 
z"/>
<path fill="#1B4D2E" opacity="1.000000" stroke="none" 
	d="
M84.283989,299.052307 
	C86.379066,304.270447 85.346008,308.540955 81.631668,312.444733 
	C87.550491,318.116058 87.766731,324.602417 83.871796,331.044647 
	C79.631401,338.058289 72.634132,334.465515 66.888695,335.411560 
	C67.233124,322.053833 69.744263,309.299561 65.092072,296.771942 
	C70.203514,294.324768 80.479996,295.250763 84.283989,299.052307 
M73.375107,328.700684 
	C73.518394,330.664825 74.467842,332.329865 76.470314,331.183380 
	C80.282295,329.000946 79.860191,324.989105 79.540428,321.385681 
	C79.270470,318.343567 78.132729,315.646454 74.043427,315.839813 
	C72.763306,319.960846 73.588837,323.950806 73.375107,328.700684 
M73.434143,309.434662 
	C73.640434,310.510376 74.160294,311.482361 75.368698,311.157562 
	C77.553825,310.570282 78.599564,308.895020 78.614853,306.699951 
	C78.631660,304.289154 79.385956,301.542480 76.640930,299.999847 
	C74.882973,299.011902 73.662987,299.847534 73.495789,301.714539 
	C73.289581,304.017059 73.400963,306.348053 73.434143,309.434662 
z"/>
<path fill="#3A7D52" opacity="1.000000" stroke="none" 
	d="
M186.402954,44.954582 
	C183.391251,30.877035 187.447998,23.924049 199.725586,21.273512 
	C201.514801,20.887251 203.026855,20.734367 204.116882,22.408667 
	C207.417953,27.479105 209.279709,32.959496 206.921082,38.846737 
	C204.582870,44.683025 199.521027,47.791290 193.730957,49.223068 
	C189.453186,50.280880 191.413879,45.867310 190.064835,43.978695 
	C188.781006,43.832264 189.051147,48.980080 186.402954,44.954582 
z"/>
<path fill="#1B4D2E" opacity="1.000000" stroke="none" 
	d="
M390.000061,349.695465 
	C405.974884,349.743866 421.457397,349.614990 436.889313,350.646088 
	C433.153778,354.169769 293.461670,354.048126 290.035828,350.835815 
	C297.940491,349.070709 306.054535,349.871643 314.077942,349.732697 
	C322.566742,349.585724 331.059967,349.695740 339.551270,349.695129 
	C347.876068,349.694519 356.200867,349.696198 364.525665,349.696320 
	C372.850464,349.696442 381.175262,349.695892 390.000061,349.695465 
z"/>
<path fill="#1B4D2E" opacity="1.000000" stroke="none" 
	d="
M170.000061,349.700928 
	C182.634735,350.012695 194.787338,349.068970 206.904343,350.248108 
	C207.293777,350.286011 207.598724,351.192169 209.056183,353.314423 
	C159.547104,353.320465 111.373444,353.341339 63.157276,352.105774 
	C69.713791,348.334869 76.754021,350.089905 83.555641,349.777374 
	C90.702904,349.449005 97.876923,349.703369 105.039253,349.702667 
	C112.201576,349.701996 119.363907,349.700134 126.526230,349.699982 
	C133.688553,349.699829 140.850876,349.701508 148.013199,349.701721 
	C155.175491,349.701935 162.337769,349.701324 170.000061,349.700928 
z"/>
<path fill="#3A7D52" opacity="1.000000" stroke="none" 
	d="
M349.886353,110.377960 
	C346.777161,110.403732 344.170898,110.310852 341.580963,109.451355 
	C336.548920,107.781441 335.251434,104.040527 338.361420,99.662621 
	C345.096588,90.181564 355.511017,87.811134 364.434509,93.597290 
	C366.793030,95.126610 367.574615,96.623634 366.070709,99.281624 
	C362.550873,105.502556 358.278198,110.491928 349.886353,110.377960 
z"/>
<path fill="#1B4D2E" opacity="1.000000" stroke="none" 
	d="
M97.338509,312.990906 
	C97.553680,317.776428 96.758080,322.133850 98.296600,326.355377 
	C99.137711,328.663300 100.711845,329.989136 103.058975,330.148254 
	C105.655151,330.324280 107.929901,329.105835 108.417076,326.571747 
	C110.317795,316.685059 110.817589,306.797577 107.605194,296.332672 
	C109.516312,294.841522 112.314812,295.692780 115.556877,296.279816 
	C110.950218,305.767792 114.298256,315.765472 112.487923,325.335999 
	C111.115952,332.589020 107.316101,336.694061 101.266144,336.246002 
	C94.944878,335.777832 91.734802,331.748169 91.641029,324.074860 
	C91.594215,320.244019 91.638908,316.412140 91.639290,312.580719 
	C91.640213,303.406097 91.639511,303.406097 88.820229,296.904572 
	C92.077774,295.352570 94.417000,295.224274 100.479073,296.489349 
	C96.372643,301.356476 97.436546,307.012054 97.338509,312.990906 
z"/>
<path fill="#1B4D2E" opacity="1.000000" stroke="none" 
	d="
M321.256165,326.415344 
	C322.495270,329.145172 324.388977,330.450165 326.957092,330.098022 
	C329.480957,329.751892 331.164734,328.025818 331.723755,325.557892 
	C333.547424,317.506653 332.540009,309.351898 332.394287,301.234833 
	C332.363434,299.517029 329.818085,299.038544 330.049927,296.679718 
	C332.579620,294.877563 335.302460,295.834320 338.321136,296.089050 
	C334.460724,306.078522 336.710938,316.016022 335.394562,325.641327 
	C334.502563,332.163544 330.274414,336.579254 324.426605,336.249847 
	C318.350098,335.907562 314.797119,331.919373 314.656860,325.272705 
	C314.635803,324.274628 314.647461,323.275818 314.647522,322.277344 
	C314.647797,318.449860 314.672485,314.622253 314.644958,310.794952 
	C314.609863,305.917511 315.484772,300.854645 311.176453,296.921143 
	C315.713074,295.311462 318.369965,295.279388 322.747131,296.535919 
	C318.704742,306.181854 320.210297,316.131287 321.256165,326.415344 
z"/>
<path fill="#1B4D2E" opacity="1.000000" stroke="none" 
	d="
M358.896057,328.478790 
	C357.395935,331.787872 355.626953,334.238556 352.387787,335.460602 
	C348.389374,336.969116 344.368408,336.532684 341.837250,333.498108 
	C339.476196,330.667542 340.245453,326.769714 341.818787,323.339966 
	C343.871490,323.865936 343.696808,325.422882 343.899231,326.610748 
	C344.408112,329.596741 345.846466,331.597412 349.048676,331.667542 
	C352.375122,331.740448 353.615814,329.330780 354.313293,326.630341 
	C355.070587,323.698364 353.966888,321.365906 351.356079,319.925018 
	C350.067993,319.214142 348.548096,318.932129 347.150818,318.408691 
	C342.222107,316.562317 339.918091,311.814056 340.789001,305.344360 
	C341.635071,299.059143 345.025574,295.254456 350.369873,295.017792 
	C353.179871,294.893372 356.583344,294.996033 357.812866,297.853485 
	C358.889130,300.354828 359.046417,303.543884 356.919495,306.054138 
	C355.454712,305.530060 355.514526,304.379822 355.283539,303.477356 
	C354.707886,301.228485 353.860840,299.424988 351.094910,299.360565 
	C348.972321,299.311096 347.539795,300.211182 346.861633,302.136749 
	C345.997955,304.589050 345.805298,307.067596 347.871674,309.081177 
	C348.558228,309.750183 349.498718,310.224121 350.402069,310.595062 
	C360.149750,314.597992 361.507538,317.325256 358.896057,328.478790 
z"/>
<path fill="#3A7D52" opacity="1.000000" stroke="none" 
	d="
M109.796204,180.941315 
	C103.827744,185.536072 97.731895,186.066772 91.240791,183.186539 
	C89.176857,182.270721 88.132538,181.039627 88.651840,178.544678 
	C90.813759,168.157913 104.310875,161.634613 113.590576,166.873505 
	C116.059311,168.267227 116.450920,171.317642 115.238808,174.044693 
	C114.078003,176.656296 112.237259,178.822678 109.796204,180.941315 
z"/>
<path fill="#3A7D52" opacity="1.000000" stroke="none" 
	d="
M230.390991,56.586426 
	C234.640900,60.792610 235.772873,65.667763 235.127457,71.045357 
	C234.500214,76.271469 231.047363,78.197853 226.158554,76.165283 
	C216.521179,72.158463 212.360031,65.129036 214.726273,56.852673 
	C216.212418,51.654541 217.500412,50.974354 222.610855,52.506313 
	C225.356323,53.329323 227.877243,54.536533 230.390991,56.586426 
z"/>
<path fill="#3A7D52" opacity="1.000000" stroke="none" 
	d="
M163.717133,149.168640 
	C160.925934,145.237808 158.398361,140.568802 160.606689,136.988113 
	C162.964661,133.164780 168.498077,134.405579 172.682602,134.912003 
	C180.470886,135.854584 186.213135,143.073746 185.855377,150.838181 
	C184.764008,151.919022 183.315186,151.162262 181.990173,151.570969 
	C182.402832,152.201279 182.802155,152.811234 183.188736,153.401733 
	C181.119843,156.314453 168.707214,153.721359 163.717133,149.168640 
z"/>
<path fill="#3A7D52" opacity="1.000000" stroke="none" 
	d="
M147.265686,63.876320 
	C138.908524,58.069160 136.576889,51.389721 140.104996,44.254185 
	C140.888260,42.670048 141.745758,41.628101 143.797379,41.595234 
	C153.381729,41.441681 161.513016,50.709724 159.975571,60.198776 
	C159.121185,65.472046 155.716248,67.438614 150.746689,65.497925 
	C149.669525,65.077271 148.637222,64.541756 147.265686,63.876320 
z"/>
<path fill="#3A7D52" opacity="1.000000" stroke="none" 
	d="
M401.634277,181.253616 
	C388.852203,181.498871 383.518005,178.399048 380.879303,169.495438 
	C379.814484,165.902496 381.942200,162.460785 385.669830,161.746338 
	C394.668030,160.021744 403.816772,165.958496 405.895020,174.732346 
	C406.729095,178.253586 406.106140,180.664108 401.634277,181.253616 
z"/>
<path fill="#3A7D52" opacity="1.000000" stroke="none" 
	d="
M299.669434,63.978424 
	C295.361328,54.643669 296.522095,48.476204 303.058533,43.315853 
	C306.259125,40.789074 308.580719,40.675026 311.289001,44.200401 
	C316.846924,51.435123 316.968384,58.572376 311.122437,65.366585 
	C306.899139,70.275017 303.440948,69.952850 299.669434,63.978424 
z"/>
<path fill="#1B4D2E" opacity="1.000000" stroke="none" 
	d="
M142.495667,300.951324 
	C142.195923,297.020996 143.516632,295.382111 147.345047,295.632019 
	C151.652374,295.913208 155.996979,295.574310 160.316727,295.735870 
	C162.297195,295.809967 165.163406,294.595703 165.952484,297.376038 
	C166.671295,299.908722 167.021881,302.856293 164.833817,305.172668 
	C163.445984,304.535614 163.694504,303.400543 163.476440,302.476532 
	C163.032593,300.595856 161.656006,300.309814 160.029663,300.414307 
	C158.168579,300.533905 157.392456,301.643005 157.389816,303.379303 
	C157.376938,311.864502 157.501144,320.352325 157.313248,328.833344 
	C157.257156,331.365509 160.552734,331.792053 160.081604,334.703949 
	C156.186981,335.760315 152.270096,335.670227 148.213333,334.689240 
	C153.525421,323.700745 149.707825,312.325867 151.296753,301.310486 
	C146.444061,298.895599 145.127029,301.698517 144.832153,305.696198 
	C141.998413,304.690613 142.644363,302.829987 142.495667,300.951324 
z"/>
<path fill="#1B4D2E" opacity="1.000000" stroke="none" 
	d="
M368.377563,300.417603 
	C364.085480,299.270599 364.801849,303.660278 362.586029,305.281830 
	C360.841339,302.190063 362.082611,299.277832 361.456512,295.783752 
	C368.919708,295.783752 375.839905,295.552307 382.732758,295.885712 
	C385.965332,296.042053 386.345001,300.841858 383.604797,305.100708 
	C382.389343,304.821625 382.213715,303.751495 382.017975,302.814575 
	C381.579651,300.716827 380.245087,300.162018 378.340454,300.497345 
	C376.308167,300.855103 376.366394,302.482880 376.361725,303.976868 
	C376.336945,311.952271 376.509460,319.932892 376.255798,327.900330 
	C376.170227,330.588959 378.627686,331.767181 379.056152,334.488647 
	C375.070648,335.902161 371.214661,335.645142 367.101349,334.623901 
	C372.152588,326.232544 369.561737,317.331726 369.923828,308.785156 
	C370.037598,306.099182 371.654602,302.844635 368.377563,300.417603 
z"/>
<path fill="#1B4D2E" opacity="1.000000" stroke="none" 
	d="
M421.562134,326.483948 
	C422.154083,320.738953 420.296051,315.928528 418.333740,311.151154 
	C416.464661,306.600769 414.817566,301.933502 411.216705,298.389526 
	C416.882568,293.993195 418.736053,294.403137 421.240082,300.188812 
	C422.029816,302.013489 422.660980,303.906769 423.366730,305.767883 
	C424.070465,307.623688 424.776733,309.478516 425.909088,312.457764 
	C427.579620,307.798096 428.807251,303.998993 430.319153,300.316620 
	C431.061554,298.508362 431.244965,295.075500 434.064789,296.080414 
	C437.209534,297.201111 434.592743,299.700989 434.003479,301.472565 
	C431.567169,308.797455 426.840240,315.374359 427.283081,323.640900 
	C427.486176,327.432343 426.884216,331.294495 431.428741,334.112000 
	C426.730774,336.233734 422.799744,335.133728 418.476410,335.076050 
	C419.270142,331.821747 421.918488,329.881683 421.562134,326.483948 
z"/>
<path fill="#3A7D52" opacity="1.000000" stroke="none" 
	d="
M334.374084,213.379822 
	C332.991272,202.495071 338.591309,195.771942 349.069244,195.083633 
	C352.519012,194.857010 355.153412,197.712936 354.737152,201.228195 
	C353.479584,211.847946 344.867126,217.199600 334.374084,213.379822 
z"/>
<path fill="#1B4D2E" opacity="1.000000" stroke="none" 
	d="
M246.370163,328.351013 
	C246.105972,331.047333 248.832153,331.875580 248.932053,334.601471 
	C245.091278,335.862946 241.244980,335.674561 237.675003,334.784058 
	C241.391357,321.951050 240.378128,309.577332 238.412781,295.938843 
	C240.873322,295.032623 244.782364,295.698822 249.099014,296.002686 
	C243.999252,306.629700 247.277176,317.430481 246.370163,328.351013 
z"/>
<path fill="#3A7D52" opacity="1.000000" stroke="none" 
	d="
M176.781342,40.801773 
	C183.170364,43.282337 184.280045,48.661552 185.348358,54.096085 
	C181.712128,58.416111 177.365967,57.936836 172.820938,56.212910 
	C168.762161,54.673412 166.246552,51.846668 165.721664,47.457268 
	C165.040192,41.758568 166.246323,40.311058 171.981812,40.138062 
	C173.446030,40.093891 174.924057,40.507206 176.781342,40.801773 
z"/>
<path fill="#3A7D52" opacity="1.000000" stroke="none" 
	d="
M246.325317,58.035961 
	C250.400909,59.231796 252.130035,62.913788 251.119736,67.322861 
	C250.219040,71.253624 245.081207,75.787056 241.085678,75.848450 
	C238.226624,75.892372 236.128067,74.880211 235.826050,71.391411 
	C235.274033,65.014557 238.245010,60.929745 246.325317,58.035961 
z"/>
<path fill="#3A7D52" opacity="1.000000" stroke="none" 
	d="
M262.566345,70.277695 
	C266.785919,68.314636 270.254730,69.774117 273.701630,71.372269 
	C273.800659,78.625572 270.286041,82.794281 263.167877,83.905457 
	C257.786957,84.745453 255.598099,82.471207 256.880737,77.185135 
	C257.609039,74.183655 259.100403,71.637634 262.566345,70.277695 
z"/>
<path fill="#3A7D52" opacity="1.000000" stroke="none" 
	d="
M270.179932,104.327446 
	C265.294678,103.950798 264.524109,101.468849 266.084595,97.771111 
	C268.568939,91.884254 273.879913,89.245422 279.755737,90.448746 
	C283.453064,91.205933 283.860443,93.182869 282.874054,96.233238 
	C281.102905,101.710449 277.438141,104.151344 270.179932,104.327446 
z"/>
<path fill="#3A7D52" opacity="1.000000" stroke="none" 
	d="
M130.464767,189.640930 
	C125.983986,187.055893 123.359772,183.801346 123.592972,178.648682 
	C123.840904,173.170410 126.199501,171.434158 131.277039,173.287323 
	C136.393829,175.154816 139.250900,181.827759 137.188095,186.914398 
	C135.947052,189.974670 134.225662,191.727371 130.464767,189.640930 
z"/>
<path fill="#3A7D52" opacity="1.000000" stroke="none" 
	d="
M134.252899,136.578217 
	C130.142731,136.418839 127.784401,133.480270 127.676796,128.511490 
	C127.586006,124.319183 130.486786,119.735428 133.323502,119.588684 
	C136.646667,119.416771 141.551727,126.090500 141.158554,130.440689 
	C140.947495,132.776001 139.999100,134.927078 138.687820,136.873749 
	C137.241867,139.020355 135.809189,138.749344 134.252899,136.578217 
z"/>
<path fill="#3A7D52" opacity="1.000000" stroke="none" 
	d="
M353.583252,177.718353 
	C347.261841,172.462830 346.295013,168.066177 349.716400,162.450027 
	C351.056885,160.249603 352.457001,159.476028 354.921631,160.719360 
	C359.147186,162.851074 361.006348,166.479065 360.538605,170.839767 
	C360.152039,174.443359 358.755005,178.044556 353.583252,177.718353 
z"/>
<path fill="#3A7D52" opacity="1.000000" stroke="none" 
	d="
M165.629684,74.327950 
	C164.837219,73.602066 164.423340,72.939728 163.855438,71.916367 
	C167.655563,62.608154 173.875015,60.603737 181.936111,65.678596 
	C180.483078,74.006691 175.623047,76.665245 165.629684,74.327950 
z"/>
<path fill="#3A7D52" opacity="1.000000" stroke="none" 
	d="
M141.115051,77.191582 
	C146.321640,71.408020 151.769760,70.113525 157.102463,73.060944 
	C160.421143,74.895195 160.809021,77.554253 158.143539,80.198006 
	C152.964371,85.334953 144.657455,84.050705 141.115051,77.191582 
z"/>
<path fill="#1B4D2E" opacity="1.000000" stroke="none" 
	d="
M258.394409,354.618713 
	C259.067535,345.187775 265.557465,340.851318 274.185272,343.415588 
	C277.837433,344.501068 277.770111,346.483154 276.275818,349.866547 
	C273.280670,346.384918 270.186676,343.901672 266.055328,347.107544 
	C263.392029,349.174225 262.801086,352.037415 263.739166,355.171967 
	C265.130310,359.820496 267.566345,360.806305 276.467529,360.517212 
	C275.277008,363.172150 272.891937,364.348572 269.222290,364.090851 
	C263.102081,363.661011 259.968842,361.015259 258.394409,354.618713 
z"/>
<path fill="#1B4D2E" opacity="1.000000" stroke="none" 
	d="
M251.031174,360.564758 
	C253.534103,361.057861 254.418381,358.826294 256.117126,358.330658 
	C257.454681,362.250427 257.041077,363.394653 253.673248,363.791931 
	C249.910934,364.235687 246.125824,364.017975 242.286957,363.298065 
	C242.736221,356.668030 244.523621,350.288971 241.216995,343.954681 
	C244.209473,342.478882 247.017105,342.888458 250.520737,343.556671 
	C247.139069,348.224854 248.622986,353.061005 248.408585,357.714233 
	C248.339401,359.216095 249.104645,360.231079 251.031174,360.564758 
z"/>
<path fill="#1B4D2E" opacity="1.000000" stroke="none" 
	d="
M232.297699,363.877258 
	C229.749069,363.678406 227.621048,363.485260 225.338531,363.278076 
	C225.517410,356.681854 226.777740,350.299652 224.350784,343.840363 
	C227.050049,342.524933 229.705688,342.782562 232.878937,343.746338 
	C230.837402,347.322357 231.190536,351.094696 231.283539,354.809174 
	C231.330292,356.676880 230.355988,359.150085 232.680511,360.175507 
	C234.988052,361.193481 237.113983,360.156281 238.722031,358.087646 
	C239.897659,363.539490 239.624786,363.791718 232.297699,363.877258 
z"/>
<path fill="#3A7D52" opacity="1.000000" stroke="none" 
	d="
M319.231750,66.701477 
	C321.585327,67.547119 324.272308,67.977905 324.629578,70.284370 
	C325.051453,73.007828 322.542847,74.685059 320.600555,76.083717 
	C316.392639,79.113876 312.041321,78.923149 307.797363,75.979836 
	C311.080627,66.782532 311.500763,66.432442 319.231750,66.701477 
z"/>
<path fill="#3A7D52" opacity="1.000000" stroke="none" 
	d="
M196.019318,156.013153 
	C194.725266,151.653641 193.196869,147.238144 197.828873,143.745972 
	C201.079086,141.295563 203.293488,141.841019 204.698639,145.696487 
	C205.882874,148.945801 205.899261,152.181839 203.481705,155.097000 
	C201.482819,157.507294 199.176193,157.092941 196.350800,156.055450 
	C195.976700,155.970398 196.004166,155.999817 196.019318,156.013153 
z"/>
<path fill="#3A7D52" opacity="1.000000" stroke="none" 
	d="
M184.124695,120.254974 
	C178.901688,118.616577 180.354141,115.299225 181.805603,112.278603 
	C183.289520,109.190376 188.502930,107.043655 190.588242,108.403252 
	C192.247787,109.485252 192.157959,111.237312 191.953430,112.887375 
	C191.411697,117.257301 188.877884,119.698128 184.124695,120.254974 
z"/>
<path fill="#3A7D52" opacity="1.000000" stroke="none" 
	d="
M216.845581,175.332947 
	C219.574921,178.914108 218.339294,183.331573 214.648651,184.642609 
	C212.976822,185.236496 212.108185,184.401901 211.376190,183.238007 
	C209.227676,179.821854 209.589890,176.593338 212.436203,173.763824 
	C214.508377,171.703918 215.907272,172.437057 216.845581,175.332947 
z"/>
</svg>